<svg xmlns="http://www.w3.org/2000/svg" version="1.1" xmlns:xlink="http://www.w3.org/1999/xlink" xmlns:svgjs="http://svgjs.dev/svgjs" width="100%" height="100%" viewBox="0 0 1000 600"><rect width="1000" height="600" x="0" y="0" fill="#ffffff"/><g><circle r="166.66666666666666" cx="354.38808695475257" cy="376.6102832495157" fill="#000000" transform="matrix(0.6658803005305284,0,0,0.6658803005305284,0,49.22260937445179)"/><path d="M300.5694325698687 451.61028470033796L300.5694325698687 451.61028470033796Q291.5448005553132 451.61028470033796 284.9833622200247 446.85377276796055Q278.4006894564666 442.11849526385254 278.4006894564666 432.32942383159354L278.4006894564666 432.32942383159354Q278.4006894564666 425.4494690722619 281.8406668361324 418.7393897390865Q285.28064421579825 412.0080759776416 290.7803611376097 408.8016773089407L290.7803611376097 408.8016773089407Q291.3961595574264 408.48316088489764 291.71467598146955 408.48316088489764L291.71467598146955 408.48316088489764Q292.0119579772431 408.48316088489764 292.0119579772431 408.8016773089407L292.0119579772431 408.8016773089407Q292.0119579772431 409.2476003026011 291.3961595574264 409.86339872241786L291.3961595574264 409.86339872241786Q287.27668047313523 414.1527532328654 285.3655819288764 419.80111115256364Q283.4544833846176 425.4494690722619 283.4544833846176 430.50326300041297L283.4544833846176 430.50326300041297Q283.4544833846176 439.3792540170816 288.86926259335087 443.96589052330273Q294.3052762303537 448.55252702952384 301.8010294095021 448.55252702952384L301.8010294095021 448.55252702952384Q307.44938732920036 448.55252702952384 312.5668845421601 445.7071136414053Q317.7056161833893 442.8829346815561 322.2073149765323 438.44493917322177Q326.70901376967527 434.02817809315695 330.4675075733842 429.0593218780841Q334.20476694882365 424.0904656630112 337.1138836217509 419.65247015467685L337.1138836217509 419.65247015467685Q344.9069187966729 408.03723789123717 351.2560128492661 395.80620720798083Q357.60510690185924 383.5751765247245 363.63568453040926 371.34414584146816Q369.6874965872288 359.1131151582118 376.2489349225174 347.64652389265893Q382.8316076860755 336.17993262710615 390.92192485677106 326.2422201969604L390.92192485677106 326.2422201969604Q395.97571878492215 320.12670485533215 401.2418569957686 315.37019292295474Q406.5292296348847 310.6349154188468 412.0289465566961 307.7257987459195L412.0289465566961 307.7257987459195L415.08670422751015 306.5154363345556L411.5617891347662 306.0482789126256Q406.2107132108415 305.2838394949221 400.71099628903005 304.6680410751054Q395.2112793672186 304.07347708355826 389.71156244540714 304.07347708355826L389.71156244540714 304.07347708355826Q380.9842124266253 304.07347708355826 372.7452542580429 305.43248049280896L372.7452542580429 305.43248049280896Q358.81546931322316 307.57715774803273 346.81801734093176 315.2215519250679Q334.82056536864036 322.8659461021031 327.02753019371835 334.48117836554275L327.02753019371835 334.48117836554275Q322.7381756832708 340.76656913332727 320.06263772130853 348.02874360151077Q317.38709975934614 355.29091806969416 317.38709975934614 362.4681548247995L317.38709975934614 362.4681548247995Q317.38709975934614 364.4641910821365 317.53574075723293 366.29035191331707Q317.7056161833893 368.11651274449775 318.1515391770497 369.96390800394795L318.1515391770497 369.96390800394795Q319.82905901034354 376.8438627632796 324.64927422752965 380.5174188539104Q329.4694894447157 384.16974051627164 335.43636378845713 384.16974051627164L335.43636378845713 384.16974051627164Q337.5810410436809 384.16974051627164 339.7894215837133 383.63887980953314Q341.99780212374566 383.10801910279463 344.1424793789694 382.1949386872043L344.1424793789694 382.1949386872043Q350.2579947205976 379.58310401005053 353.63426881545485 374.84782650594263L353.63426881545485 374.84782650594263Q353.9315508112284 374.4019035122823 354.08019180911526 374.4019035122823L354.08019180911526 374.4019035122823Q354.39870823315835 374.4019035122823 354.462411517967 374.9964675038294Q354.54734923104513 375.6122659236462 354.39870823315835 376.07942334557606L354.39870823315835 376.07942334557606Q351.17107513618794 382.0462976893175 344.75827779878614 385.2526963580184L344.75827779878614 385.2526963580184Q339.5558428727483 387.9919376047893 332.99440453745973 387.9919376047893L332.99440453745973 387.9919376047893Q326.5603727717884 387.9919376047893 320.6784361411252 384.7855389360884Q314.796499510462 381.5791402673875 312.1846648333083 375.3149839278726L312.1846648333083 375.3149839278726Q310.9743024219444 372.4058672549453 310.44344171520584 369.4330472972093Q309.89134658019776 366.43899291120385 309.89134658019776 363.38123524038986L309.89134658019776 363.38123524038986Q309.89134658019776 354.8237606477643 313.7984813817935 345.94776963109564Q317.7056161833893 337.0930130426965 323.65125609886115 329.59725986354806L323.65125609886115 329.59725986354806Q332.8245291113034 317.9820276001084 345.2891385055247 311.01713512769857Q357.75374789974603 304.07347708355826 372.57537883188655 302.37472282199485L372.57537883188655 302.37472282199485Q375.95165292674375 302.0774408262213 379.39163030640964 301.8438621152563Q382.8316076860755 301.6102834042913 386.18664735266316 301.6102834042913L386.18664735266316 301.6102834042913Q395.97571878492215 301.6102834042913 405.76479021718114 302.99052124181156L405.76479021718114 302.99052124181156Q409.2684708816556 303.4576786637415 413.40918439421637 303.98853937048005Q417.5286634785076 304.5194000772186 420.9049375733648 304.83791650126176L420.9049375733648 304.83791650126176Q421.81801798895503 304.6680410751054 422.64616069146723 304.60433779029677Q423.49553782224893 304.5194000772186 424.25997723995243 304.5194000772186L424.25997723995243 304.5194000772186Q425.7888560753595 304.5194000772186 427.1690939128797 304.75297878818355Q428.54933175040003 304.9865574991485 429.9083351596507 305.2838394949221L429.9083351596507 305.2838394949221Q430.3754925815806 305.43248049280896 430.3754925815806 305.89963791473883L430.3754925815806 305.89963791473883Q430.3754925815806 306.3667953366688 429.9932728727289 306.74901504552054Q429.61105316387716 307.1312347543723 429.1438957419472 306.96135932821596L429.1438957419472 306.96135932821596Q427.3177349107665 306.3667953366688 424.72713466188236 306.3667953366688L424.72713466188236 306.3667953366688Q419.9706227295049 306.3667953366688 414.55584352077165 309.1909742965179Q409.11982988376883 312.01515325636706 403.32283096618374 318.59782601992515L403.32283096618374 318.59782601992515Q394.2981989516283 328.8328204458445 387.56688519018337 340.6816314202491Q380.8355714287385 352.53044239465373 375.33585450692703 365.05875507368364Q369.8361375851156 377.6083021809832 364.16654523714783 389.9879738621263L364.16654523714783 389.9879738621263Q360.51422357478657 397.7810090370483 356.0762280664522 406.27478034486523Q351.63823255811786 414.74731722441254 346.05357792322826 422.85886882337775Q340.4689232883386 430.97042042234284 333.6739062420851 437.4681554728228Q326.87888919583156 443.96589052330273 318.68239988378826 447.7880876118204Q310.5071450000145 451.61028470033796 300.5694325698687 451.61028470033796Z " fill="#ffffff" transform="matrix(0.6658803005305284,0,0,0.6658803005305284,0,49.22260937445179)"/><path d="M624.7522021547928 445.29038542470084L624.7522021547928 445.29038542470084Q616.4622153231871 445.29038542470084 610.4349072503255 440.9210747181603Q604.3880933260954 436.5712698629884 604.3880933260954 427.57907238211715L604.3880933260954 427.57907238211715Q604.3880933260954 421.2591765387283 607.5480412477898 415.0953275062873Q610.7079891694842 408.91197262247783 615.7600046739217 405.96658906583673L615.7600046739217 405.96658906583673Q616.3256743636077 405.6740012953094 616.618262134135 405.6740012953094L616.618262134135 405.6740012953094Q616.8913440532938 405.6740012953094 616.8913440532938 405.96658906583673L616.8913440532938 405.96658906583673Q616.8913440532938 406.37621194457483 616.3256743636077 406.9418816342609L616.3256743636077 406.9418816342609Q612.5415391981218 410.8820636106947 610.7860125749582 416.0706200747114Q609.0304859517946 421.2591765387283 609.0304859517946 425.90156916442754L609.0304859517946 425.90156916442754Q609.0304859517946 434.05501503645394 614.004478050758 438.2682789320464Q618.99797600109 442.48154282763903 625.8835415341649 442.48154282763903L625.8835415341649 442.48154282763903Q631.0720979981818 442.48154282763903 635.7730081779864 439.86775874426223Q640.4934242091596 437.27348051225374 644.6286646992783 433.19675757624054Q648.7639051893968 429.1395404915959 652.2164408816186 424.57517127137055Q655.6494707224717 420.01080205114533 658.3217723599541 415.93407911513214L658.3217723599541 415.93407911513214Q665.4804198121878 405.2643784165713 671.3126693713646 394.02900802832437Q677.1449189305413 382.79363764007746 682.6845807191908 371.55826725183056Q688.2437483592088 360.32289686358376 694.2710564320704 349.7897371246023Q700.3178703563005 339.25657738562086 707.749599727693 330.1278389451702L707.749599727693 330.1278389451702Q712.3919923533922 324.5101537510468 717.2294434927763 320.1408430445063Q722.0864004835289 315.79103818933436 727.1384159879663 313.118736551852L727.1384159879663 313.118736551852L729.947258585028 312.0069030238484L726.7092872578596 311.57777429374175Q721.7938127130016 310.8755636444763 716.7417972085642 310.30989395479025Q711.6897817041267 309.76373011647274 706.6377661996894 309.76373011647274L706.6377661996894 309.76373011647274Q698.6208612872424 309.76373011647274 691.0525909562705 311.0121046040557L691.0525909562705 311.0121046040557Q678.256752458545 312.98219559227266 667.2359464353514 320.00430208492696Q656.2151404121578 327.02640857758126 649.0564929599241 337.696109276142L649.0564929599241 337.696109276142Q645.1163109834904 343.46984128121335 642.6585737110613 350.1408424492349Q640.2008364386323 356.8118436172566 640.2008364386323 363.40482137980416L640.2008364386323 363.40482137980416Q640.2008364386323 365.2383714084417 640.3373773982116 366.9158746261313Q640.4934242091596 368.59337784382103 640.9030470878977 370.29038691287917L640.9030470878977 370.29038691287917Q642.444009346008 376.610282756268 646.8718376066539 379.98479504301577Q651.2996658672998 383.3398014783951 656.7808101018438 383.3398014783951L656.7808101018438 383.3398014783951Q658.7509010900608 383.3398014783951 660.7795096323831 382.85215519418296Q662.8081181747054 382.3645089099708 664.7782091629224 381.52575730112596L664.7782091629224 381.52575730112596Q670.3958943570458 379.1265375828025 673.4973247246348 374.7767327276305L673.4973247246348 374.7767327276305Q673.7704066437935 374.36710984889237 673.9069476033729 374.36710984889237L673.9069476033729 374.36710984889237Q674.1995353739003 374.36710984889237 674.2580529280057 374.9132736872099Q674.3360763334796 375.4789433768959 674.1995353739003 375.90807210700257L674.1995353739003 375.90807210700257Q671.2346459658906 381.38921634154667 665.3438788526084 384.3345998981878L665.3438788526084 384.3345998981878Q660.5649452673298 386.85085472472224 654.5376371944682 386.85085472472224L654.5376371944682 386.85085472472224Q648.6273642298174 386.85085472472224 643.2242434007474 383.90547116808114Q637.8211225716773 380.96008761144003 635.4219028533537 375.2058614577371L635.4219028533537 375.2058614577371Q634.31006932535 372.5335598202548 633.822423041138 369.80274062866704Q633.3152709055573 367.0524155857107 633.3152709055573 364.243572988649L633.3152709055573 364.243572988649Q633.3152709055573 356.38271488714986 636.9043475573585 348.2292690151236Q640.4934242091596 340.0953289944656 645.9550625923351 333.2097634613907L645.9550625923351 333.2097634613907Q654.3815903835202 322.54006276282985 665.8315251368206 316.1421435139671Q677.2814598901207 309.76373011647274 690.8965441453227 308.203262006994L690.8965441453227 308.203262006994Q693.9979745129117 307.9301800878352 697.1579224346061 307.7156157227819Q700.3178703563005 307.50105135772856 703.399794872521 307.50105135772856L703.399794872521 307.50105135772856Q712.3919923533922 307.50105135772856 721.3841898342635 308.76893169668006L721.3841898342635 308.76893169668006Q724.6026553100633 309.1980604267867 728.4062963269178 309.68570671099883Q732.1904314924037 310.1733529952109 735.2918618599927 310.4659407657382L735.2918618599927 310.4659407657382Q736.1306134688375 310.30989395479025 736.8913416722083 310.2513764006849Q737.6715757269477 310.1733529952109 738.3737863762132 310.1733529952109L738.3737863762132 310.1733529952109Q739.778207674744 310.1733529952109 741.0460880136955 310.3879173602642Q742.313968352647 310.60248172531755 743.5623428402299 310.8755636444763L743.5623428402299 310.8755636444763Q743.9914715703366 311.0121046040557 743.9914715703366 311.44123333416235L743.9914715703366 311.44123333416235Q743.9914715703366 311.870362064269 743.6403662457038 312.2214673889017Q743.2892609210712 312.57257271353444 742.8601321909646 312.4165259025866L742.8601321909646 312.4165259025866Q741.1826289732749 311.870362064269 738.8029151063198 311.870362064269L738.8029151063198 311.870362064269Q734.4336043997794 311.870362064269 729.4596123008159 314.4646402962774Q724.466114350484 317.05891852828586 719.1410169268878 323.1057324525159L719.1410169268878 323.1057324525159Q710.851030095282 332.50755281212525 704.6676752114724 343.39181787573943Q698.484320327663 354.2760829393536 693.4323048232256 365.78453524675933Q688.3802893187882 377.3124934055335 683.1722270034029 388.6844047533597L683.1722270034029 388.6844047533597Q679.8172205680237 395.8430522055934 675.7404976320105 403.64539275298705Q671.6637746959973 411.4282274490123 666.5337357860859 418.87946267177324Q661.4036968761745 426.3306978945342 655.1618244382596 432.2994884132903Q648.9199520003447 438.2682789320464 641.3906933721098 441.7793321783736Q633.8809405952434 445.29038542470084 624.7522021547928 445.29038542470084ZM714.3620833416092 406.2396709849954L714.3620833416092 406.2396709849954Q709.0174800666445 406.2396709849954 705.1553214956846 402.8066411441422Q701.2931629247247 399.35410545192053 701.2931629247247 392.1954579996868L701.2931629247247 392.1954579996868Q701.2931629247247 387.7091121849355 702.9121485883089 382.85215519418296Q704.5311342518931 378.0147040547988 706.50122524011 374.2110630379444L706.50122524011 374.2110630379444Q710.1488194460165 367.34500335623807 715.688481234666 362.2149644463267Q721.247648874684 357.0849255364153 728.9719660166038 357.0849255364153L728.9719660166038 357.0849255364153Q736.4036953879963 357.0849255364153 739.3490789446373 361.1616484724285Q742.313968352647 365.2383714084417 742.313968352647 371.1291385217239L742.313968352647 371.1291385217239Q742.313968352647 373.508852388679 741.8848396225403 376.044613066582L741.8848396225403 376.044613066582Q740.7535002431682 382.93017859965687 737.2424469968411 389.3866154026251L737.2424469968411 389.3866154026251Q738.2372454166338 390.79103670115603 739.856231080218 391.7078117154748Q741.4557108924337 392.62458672979346 743.4258018806505 392.62458672979346L743.4258018806505 392.62458672979346Q746.8003141673983 392.62458672979346 749.1800280343533 390.79103670115603Q751.579247752677 388.9574866725185 753.3347743758405 386.2266674809307Q755.0903009990041 383.4958482893429 756.3581813379556 381.0966285710193L756.3581813379556 381.0966285710193Q757.1969329468004 379.5556663129091 757.8991435960658 379.5556663129091L757.8991435960658 379.5556663129091Q758.308766474804 379.5556663129091 758.308766474804 380.12133600259517L758.308766474804 380.12133600259517Q758.308766474804 380.6870056922812 757.4700148659591 382.63759082912964L757.4700148659591 382.63759082912964Q755.0903009990041 387.4165244144083 751.8523296718357 390.92757766073544Q748.6338641960358 394.4386309070626 743.4258018806505 394.4386309070626L743.4258018806505 394.4386309070626Q738.6468682953719 394.4386309070626 736.1306134688375 391.06411862031473L736.1306134688375 391.06411862031473Q732.1904314924037 397.5400612746515 726.5727462982802 401.88986612982353Q720.9550611041568 406.2396709849954 714.3620833416092 406.2396709849954ZM714.635165260768 404.5621677673058L714.635165260768 404.5621677673058Q721.5207307938429 404.5621677673058 728.2697553673383 397.81314319381033L728.2697553673383 397.81314319381033Q730.2203405041868 395.8430522055934 731.839326167771 393.67790270369164Q733.4583118313551 391.49324735042137 734.7261921703066 389.2500744430457L734.7261921703066 389.2500744430457Q732.8926421416691 387.1434424952495 732.1319139382982 384.6857052228205Q731.3516798835589 382.2279679503914 731.3516798835589 379.98479504301577L731.3516798835589 379.98479504301577Q731.3516798835589 376.4737417966886 732.6195602225104 373.7234167537323Q733.8874405614617 370.9925975621446 736.1306134688375 370.9925975621446L736.1306134688375 370.9925975621446Q737.2424469968411 370.9925975621446 738.2957629707392 372.1044310901482Q739.3490789446373 373.2357704695203 739.6416667151647 375.61548433647533L739.6416667151647 375.61548433647533Q740.0512895939028 373.6648991996269 740.0512895939028 371.40222044088273L740.0512895939028 371.40222044088273Q740.0512895939028 366.07712301728657 738.1007044570543 362.91717509559214Q736.1306134688375 359.7572271738977 731.4882208431383 359.7572271738977L731.4882208431383 359.7572271738977Q728.6793782460766 359.7572271738977 725.7339946894353 361.92237667579946Q722.7886111327942 364.1070320290696 720.1943329007859 367.1889565452901Q717.5805488174091 370.29038691287917 715.6299636805606 373.508852388679Q713.6598726923437 376.7468237158474 712.665074272551 378.8534556636437L712.665074272551 378.8534556636437Q710.285360405596 384.0420121276604 709.2320444316978 388.1187350636736Q708.1787284577996 392.1954579996868 708.1787284577996 395.27738251590733L708.1787284577996 395.27738251590733Q708.1787284577996 399.7832341820272 710.0707960405426 402.16294804898223Q711.9628636232856 404.5621677673058 714.635165260768 404.5621677673058ZM783.3152679292007 400.89506771003084L783.3152679292007 400.89506771003084Q780.9355540622456 402.8651586982477 778.6143577493959 403.78193371256646Q776.2931614365464 404.69870872688523 774.3230704483294 404.69870872688523L774.3230704483294 404.69870872688523Q770.8120172020024 404.69870872688523 768.4908208891527 402.24097145445626Q766.1891304276716 399.7832341820272 766.1891304276716 395.706511246014L766.1891304276716 395.706511246014Q766.1891304276716 393.3267973790589 767.3009639556751 389.9522850923112L767.3009639556751 389.9522850923112Q769.1345139843127 384.9002695878738 772.7821081902192 380.2578769621746Q776.4297023961258 375.61548433647533 779.8042146828735 370.8560566025652L779.8042146828735 370.8560566025652Q781.9108466306698 368.0472140055034 781.9108466306698 365.3749123680211L781.9108466306698 365.3749123680211Q781.9108466306698 363.9704910694902 781.1306125759304 362.9756926496975Q780.3698843725596 362.00040008127337 778.3997933843426 361.86385912169396L778.3997933843426 361.86385912169396Q777.2684540049706 361.57127135116673 775.8640327064397 361.57127135116673Q774.4596114079088 361.57127135116673 773.055190109378 361.57127135116673L773.055190109378 361.57127135116673L769.1345139843127 361.57127135116673Q768.2957623754678 361.57127135116673 767.5935517262025 361.57127135116673Q766.891341076937 361.57127135116673 766.325671387251 361.4347303915873L766.325671387251 361.4347303915873Q765.7600016975649 364.9457836379145 764.0044750744014 369.2955884930865Q762.2489484512378 373.6648991996269 760.0057755438621 378.0147040547988Q757.7626026364863 382.3645089099708 755.6559706886901 385.875562156298L755.6559706886901 385.875562156298Q755.0903009990041 386.71431376514283 754.6611722688974 386.71431376514283L754.6611722688974 386.71431376514283Q754.2515493901592 386.71431376514283 754.2515493901592 385.875562156298L754.2515493901592 385.875562156298Q754.2515493901592 384.9002695878738 754.6611722688974 384.3345998981878L754.6611722688974 384.3345998981878Q757.6065558255385 378.58037374448486 760.3568808684947 373.02120610446696Q763.0877000600826 367.48154431581736 764.0824984798753 361.4347303915873L764.0824984798753 361.4347303915873Q760.8445271527069 359.6206862143183 759.7131877733348 355.1148345481985L759.7131877733348 355.1148345481985Q759.5766468137555 354.412623898933 759.51812925965 353.7884366551415Q759.4401058541761 353.1447435599815 759.4401058541761 352.598579721664L759.4401058541761 352.598579721664Q759.4401058541761 350.062819043761 760.4934218280741 348.3072924205975Q761.5467378019723 346.55176579743386 762.9511591005032 346.55176579743386L762.9511591005032 346.55176579743386Q764.9212500887201 346.55176579743386 766.1891304276716 350.3359009629198L766.1891304276716 350.3359009629198Q766.4622123468304 351.3306993827125 766.5987533064097 352.5205563161901Q766.7352942659891 353.71041324966757 766.7352942659891 354.84175262903966L766.7352942659891 354.84175262903966Q766.7352942659891 356.10963296799116 766.6767767118837 357.1629489418892Q766.5987533064097 358.2162649157874 766.4622123468304 358.91847556505286L766.4622123468304 358.91847556505286Q767.4375049152545 359.19155748421167 769.0564905788387 359.32809844379096Q770.675476242423 359.46463940337037 772.6455672306398 359.46463940337037L772.6455672306398 359.46463940337037Q775.5909507872809 359.46463940337037 778.8289221144494 359.2695808896856Q782.0473875902492 359.05501652463226 784.2905604976249 359.05501652463226L784.2905604976249 359.05501652463226Q786.9628621351072 359.05501652463226 787.9576605548999 360.1668500526358Q788.9329531233241 361.2981894320079 788.9329531233241 362.9756926496975L788.9329531233241 362.9756926496975Q788.9329531233241 365.0823245974939 787.8796371494259 367.54006186992285Q786.8263211755278 369.9977991423518 785.8510286071037 371.69480821140996L785.8510286071037 371.69480821140996Q784.0174785784661 375.0693204981577 782.3984929148819 377.6635987301662Q780.7795072512977 380.2578769621746 778.8289221144494 383.2032605188157L778.8289221144494 383.2032605188157Q775.8640327064397 387.7091121849355 774.5376348133827 391.41522394494746Q773.2112369203259 395.1408415563279 773.2112369203259 397.6766022342309L773.2112369203259 397.6766022342309Q773.2112369203259 402.0264070894028 776.4297023961258 402.0264070894028L776.4297023961258 402.0264070894028Q779.1020040336081 402.0264070894028 783.3152679292007 398.242271923917L783.3152679292007 398.242271923917Q785.987569566683 395.8430522055934 788.3087658795326 392.54656332431955Q790.6104563410138 389.2500744430457 792.5220297751252 385.79753875082406Q794.4140973578682 382.3645089099708 795.6819776968196 380.12133600259517L795.6819776968196 380.12133600259517Q795.9550596159784 379.69220727248853 796.2281415351372 379.69220727248853L796.2281415351372 379.69220727248853Q796.7938112248232 379.69220727248853 796.7938112248232 380.8235466518606L796.7938112248232 380.8235466518606Q796.7938112248232 381.66229826070537 796.3841883460851 382.3645089099708L796.3841883460851 382.3645089099708Q793.9849686277615 386.71431376514283 790.903044111541 391.9223760805281Q787.801613743952 397.1109325445449 783.3152679292007 400.89506771003084ZM790.2008334622756 441.7793321783736L790.2008334622756 441.7793321783736Q787.9576605548999 442.3254960166912 785.6949817961557 442.3254960166912L785.6949817961557 442.3254960166912Q781.4817179005631 442.3254960166912 779.3750859527669 440.2968874743689Q777.2684540049706 438.2682789320464 777.2684540049706 435.3033895240369L777.2684540049706 435.3033895240369Q777.2684540049706 432.78713469750244 778.9654630740287 429.9002686949667Q780.6429662917183 427.03290854379964 784.0174785784661 424.77022978505545L784.0174785784661 424.77022978505545Q788.367283433638 421.82484622841434 791.9563600854392 420.0693196052507Q795.5259308858717 418.3137929820872 799.7391947814643 416.55826635892356Q803.9524586770569 414.80273973576004 810.2723545204458 411.85735617911894L810.2723545204458 411.85735617911894Q812.53503327919 407.3710103643675 814.6416652269863 401.5972783592962Q816.7482971747826 395.8430522055934 818.7769057171049 390.22536701147Q820.8055142594272 384.6076818173465 822.6390642880648 380.5309588813333L822.6390642880648 380.5309588813333Q822.0733945983787 381.0966285710193 820.3958913806891 383.4958482893429Q818.698882311631 385.875562156298 817.8601307027861 387.1434424952495L817.8601307027861 387.1434424952495Q815.7534987549898 389.9522850923112 812.6715742387694 393.95098462285046Q809.5701438711803 397.94968415338974 806.0590906248533 400.75852675045144L806.0590906248533 400.75852675045144Q801.5727448101019 404.406120956358 797.9251506041953 404.406120956358L797.9251506041953 404.406120956358Q794.4140973578682 404.406120956358 792.5220297751252 401.4607373997169Q790.6104563410138 398.5153538430757 790.6104563410138 394.02900802832437L790.6104563410138 394.02900802832437Q790.6104563410138 390.92757766073544 791.4687138012271 387.8456531445149L791.4687138012271 387.8456531445149Q795.818518656399 371.69480821140996 808.8679332219149 362.1369410408528L808.8679332219149 362.1369410408528Q811.5402348593973 360.1668500526358 815.4804168358311 358.97699311915835Q819.4010929608964 357.78713618568077 823.3412749373301 357.78713618568077L823.3412749373301 357.78713618568077Q828.8224191718742 357.78713618568077 832.8991421078874 360.1668500526358L832.8991421078874 360.1668500526358L833.3087649866256 359.7572271738977Q836.546736313794 354.97829358861907 839.7652017895939 351.74032226145073Q843.0031731167622 348.5218567856508 847.4895189315135 347.5270583658581L847.4895189315135 347.5270583658581Q842.7300911976034 352.7351206812434 838.360780491063 360.6740021882164Q834.010975635891 368.59337784382103 830.4414048354585 377.44903436511277Q826.8523281836574 386.3046908864046 823.9069446270162 394.22406654200915Q820.9615610703751 402.16294804898223 818.8549291225788 407.5075513239469L818.8549291225788 407.5075513239469Q826.5792462644986 403.56736934751314 832.8211187024135 396.89636817949156Q839.0629911403284 390.22536701147 843.4323018468689 382.3645089099708L843.4323018468689 382.3645089099708Q844.407594415293 380.394417921754 845.5389337946651 380.394417921754L845.5389337946651 380.394417921754Q845.8120157138239 380.394417921754 845.8120157138239 380.8235466518606L845.8120157138239 380.8235466518606Q845.8120157138239 381.38921634154667 845.2463460241379 382.3645089099708L845.2463460241379 382.3645089099708Q842.7300911976034 386.85085472472224 839.8432251950678 391.14214202578876Q836.9563591925321 395.4334293268553 833.3087649866256 399.08102353276183L833.3087649866256 399.08102353276183Q830.2268404704051 402.4555358195096 826.3646818994453 405.2643784165713Q822.5025233284854 408.073221013633 817.8601307027861 410.1798529614292L817.8601307027861 410.1798529614292Q814.4856184160384 418.0407110629284 810.7014832505524 424.63368882547604Q806.9173480850666 431.2461724393921 802.0018735402085 435.73251825414354Q797.0863989953505 440.21886406889485 790.2008334622756 441.7793321783736ZM800.8705341608364 400.056316101186L800.8705341608364 400.056316101186Q803.6793767578981 400.056316101186 806.7613012741186 397.1889559500188Q809.8627316417077 394.3020899474832 812.9446561579282 390.1668494573645Q816.0460865255171 386.0121031158774 818.5038237979461 382.1499445449175Q820.9615610703751 378.2877859739576 822.2099355579581 376.1811540261614L822.2099355579581 376.1811540261614Q824.3165675057544 372.96268855036146 826.715787224078 369.2955884930865Q829.095501091033 365.6479942871799 832.196931458622 361.2981894320079L832.196931458622 361.2981894320079Q829.5246298211397 359.893768133477 826.4231994535508 359.893768133477L826.4231994535508 359.893768133477Q822.365982368906 359.893768133477 818.3477769869983 362.1369410408528Q814.349077456459 364.3801139482284 811.1306119806591 368.0472140055034L811.1306119806591 368.0472140055034Q806.3516783953805 373.2357704695203 803.1137070682121 379.2045609882764Q799.8952415924123 385.1733515070325 798.6273612534608 389.65969732178394L798.6273612534608 389.65969732178394Q797.9251506041953 392.1954579996868 797.9251506041953 394.86775963716923L797.9251506041953 394.86775963716923Q797.9251506041953 396.9743915849655 798.5493378479869 398.5153538430757Q799.1930309431468 400.056316101186 800.8705341608364 400.056316101186ZM789.3620818534307 438.81444277036405L789.3620818534307 438.81444277036405Q794.2775563982888 437.27348051225374 797.9251506041953 433.41132194129386Q801.5727448101019 429.5491633703341 804.3035640016897 424.57517127137055Q807.0538890446459 419.5816733210386 809.0239800328628 414.52965781660123L809.0239800328628 414.52965781660123Q804.6546693263224 416.7728307239769 797.8471271987214 419.36710895598526Q791.0395850711204 421.96138718799375 784.9927711468903 426.6037798136929L784.9927711468903 426.6037798136929Q782.3399753607764 428.71041176148924 780.9940716163511 430.9535846688649Q779.6676737232941 433.19675757624054 779.6676737232941 435.1668485644575L779.6676737232941 435.1668485644575Q779.6676737232941 437.00039859309504 780.9355540622456 438.2682789320464Q782.1839285498286 439.5166534196295 784.856230187311 439.5166534196295L784.856230187311 439.5166534196295Q785.8510286071037 439.5166534196295 786.9628621351072 439.3801124600501Q788.0942015144793 439.2435715004707 789.3620818534307 438.81444277036405ZM857.1839270616503 404.5621677673058L857.1839270616503 404.5621677673058Q849.0499870409924 404.5621677673058 845.6754747542445 400.3489038717132L845.6754747542445 400.3489038717132Q843.9784656851864 398.5153538430757 843.276255035921 395.9795931651728Q842.5740443866556 393.4633383386383 842.5740443866556 390.79103670115603L842.5740443866556 390.79103670115603Q842.5740443866556 387.4165244144083 843.4323018468689 383.98349457355505Q844.2710534557137 380.5309588813333 845.5389337946651 377.5855753246922L845.5389337946651 377.5855753246922Q847.4895189315135 372.96268855036146 850.727490258682 368.2422725191883Q853.9654615858503 363.54136233938357 858.5298308060757 360.32289686358376Q863.094200026301 357.0849255364153 868.5558384094766 357.0849255364153L868.5558384094766 357.0849255364153Q872.2229384667514 357.0849255364153 874.3295704145478 358.91847556505286Q876.4362023623441 360.73251974232187 876.4362023623441 364.53616075917625L876.4362023623441 364.53616075917625Q876.4362023623441 368.88596561434827 873.7639007248617 373.3137938749942Q871.0915990873794 377.7221162842716 867.0148761513663 380.6870056922812Q862.938153215353 383.6323892489223 858.588348360181 383.6323892489223L858.588348360181 383.6323892489223Q854.6676722351158 383.6323892489223 851.7027828271061 380.8235466518606L851.7027828271061 380.8235466518606Q850.8640312182613 383.0667195592363 850.2983615285752 385.79753875082406Q849.7521976902577 388.54786379378027 849.7521976902577 391.3567063908421L849.7521976902577 391.3567063908421Q849.7521976902577 395.706511246014 851.5077243134212 398.9444825731824Q853.2632509365849 402.16294804898223 857.8861377109156 402.16294804898223L857.8861377109156 402.16294804898223Q861.2606499976634 402.16294804898223 864.4205979193579 400.4074214258187Q867.5805458410523 398.6518948026551 870.1163065189553 396.1356399761206L870.1163065189553 396.1356399761206Q872.925149116017 393.1707505681111 875.4414039425513 389.81574413273177Q877.9771646204542 386.441231845984 880.3568784874094 381.9353801798642L880.3568784874094 381.9353801798642Q880.6494662579366 381.52575730112596 880.786007217516 381.52575730112596L880.786007217516 381.52575730112596Q881.3516769072021 381.52575730112596 881.3516769072021 382.79363764007746L881.3516769072021 382.79363764007746Q881.3516769072021 383.6323892489223 880.786007217516 384.6076818173465L880.786007217516 384.6076818173465Q878.6793752697198 388.411322834201 875.8705326726581 392.27348140516074Q873.0616900755963 396.1356399761206 870.1163065189553 398.9444825731824L870.1163065189553 398.9444825731824Q867.4440048814729 401.4607373997169 864.3425745138838 403.0016996578271Q861.2606499976634 404.5621677673058 857.1839270616503 404.5621677673058ZM852.4049934763716 378.71691470406427L852.4049934763716 378.71691470406427Q853.3997918961643 380.12133600259517 854.7261897892213 380.7455232463866Q856.0720935336467 381.38921634154667 857.4765148321775 381.38921634154667L857.4765148321775 381.38921634154667Q860.8315212675568 381.38921634154667 864.4986213248318 378.77543225816976Q868.1462155307383 376.1811540261614 870.389388438114 372.67010077983423L870.389388438114 372.67010077983423Q871.3646810065381 371.1291385217239 872.1449150612775 368.59337784382103Q872.925149116017 366.07712301728657 872.925149116017 363.8339501099109L872.925149116017 363.8339501099109Q872.925149116017 361.86385912169396 872.1449150612775 360.38141441768914Q871.3646810065381 358.91847556505286 869.1215080991626 358.91847556505286L869.1215080991626 358.91847556505286Q866.605253272628 358.91847556505286 863.1527175804064 362.00040008127337Q859.7196877395531 365.0823245974939 856.6182573719642 369.9977991423518L856.6182573719642 369.9977991423518Q855.64296480354 371.69480821140996 854.4531078700625 373.9379811187856Q853.2632509365849 376.1811540261614 852.4049934763716 378.71691470406427ZM905.6364618609648 416.20716103429083L905.6364618609648 416.20716103429083Q904.232040562434 416.20716103429083 901.208633600319 415.79753815555273Q898.2047324895724 415.3684094254461 895.6689718116695 413.9639881269152Q893.1332111337665 412.5595668283843 893.1332111337665 409.6141832717432L893.1332111337665 409.6141832717432Q893.1332111337665 407.78063324310574 893.9914685939798 406.8053406746815L893.9914685939798 406.8053406746815Q894.5376324322974 406.103130025416 895.1033021219835 406.103130025416Q895.6689718116695 406.103130025416 895.3958898925107 406.8053406746815L895.3958898925107 406.8053406746815Q894.966761162404 408.91197262247783 896.936852150621 410.80404020522076Q898.9069431388378 412.6961077879637 900.8575282756863 413.26177747764973L900.8575282756863 413.26177747764973Q902.2619495742172 413.53485939680854 903.5298299131687 413.74942376186186Q904.79771025212 413.9639881269152 905.9290496314923 413.9639881269152L905.9290496314923 413.9639881269152Q911.5467348256157 413.9639881269152 916.1696215999464 411.07712212437957Q920.8120142256456 408.2097619732124 924.5376318370261 403.78193371256646Q928.243743597038 399.35410545192053 931.2086330050477 394.86775963716923L931.2086330050477 394.86775963716923Q935.4218969006403 388.411322834201 939.4791139852849 380.12133600259517Q943.5558369212981 371.83134917098937 947.9056417764701 363.05371605517155Q952.2749524830106 354.2760829393536 957.1124036223946 345.9860961077478Q961.9498547617787 337.696109276142 967.7235867668501 331.1811549190684Q973.4778129205529 324.64669471062615 980.3633784536278 321.13564146429906L980.3633784536278 321.13564146429906Q984.8497242683791 318.73642174597546 988.9264472043923 318.73642174597546L988.9264472043923 318.73642174597546Q991.1696201117679 318.73642174597546 993.0031701404055 319.3020914356615L993.0031701404055 319.3020914356615Q993.5493339787231 319.4386323952409 993.3542754650382 320.00430208492696Q993.1397110999849 320.569971774613 992.5740414102988 320.4334308150336L992.5740414102988 320.4334308150336Q992.0083717206128 320.1408430445063 991.3841844768212 320.1408430445063Q990.7404913816613 320.1408430445063 990.038280732396 320.1408430445063L990.038280732396 320.1408430445063Q982.7430923205828 320.1408430445063 974.7456932595044 329.56216925548415L974.7456932595044 329.56216925548415Q967.5675399559022 337.98869704666936 962.808112221992 347.60508177133204Q958.0291786367134 357.2214664959947 953.5233269705935 367.1889565452901L953.5233269705935 367.1889565452901L953.6793737815415 367.1889565452901Q955.0837950800723 367.8911671945556 956.7612982977619 368.4568368842416L956.7612982977619 368.4568368842416Q962.9446531815713 370.42692787245846 969.1280080653809 370.42692787245846L969.1280080653809 370.42692787245846Q975.8575267875078 370.42692787245846 982.6065513610034 368.1837549650828Q989.3360700831304 365.94058205770716 994.8952377231484 361.72731816211456Q1000.434899511798 357.51405426652195 1003.8094117985459 351.54526374776583Q1007.1839240852935 345.5764732290097 1007.1839240852935 338.12523800624876L1007.1839240852935 338.12523800624876Q1007.1839240852935 331.5322602437011 1003.9459527581251 325.48544631947095Q1000.7274872823252 319.4386323952409 994.1150036684091 315.38141531059614L994.1150036684091 315.38141531059614Q987.2294381353342 310.8755636444763 977.7495943702509 308.84695510215397Q968.2697506051676 306.7988407084631 958.0291786367134 306.7988407084631L958.0291786367134 306.7988407084631Q946.2281385587805 306.7988407084631 935.0707915760074 310.5244583198436Q923.8939387418661 314.2500759312241 916.8718322492118 320.99910050471965L916.8718322492118 320.99910050471965Q913.2242380433053 324.5101537510468 910.3373720407697 330.3228974588551Q907.4700118896023 336.1551470180318 907.4700118896023 341.9093731717346L907.4700118896023 341.9093731717346Q907.4700118896023 343.1772535106861 907.6065528491818 344.4451338496376Q907.7430938087612 345.7130141885891 908.1722225388678 346.9808945275405L908.1722225388678 346.9808945275405Q909.4401028778193 350.90157065260587 913.0096736782519 353.0082026004021Q916.598750330053 355.1148345481985 920.9485551852249 355.1148345481985L920.9485551852249 355.1148345481985Q922.7821052138625 355.1148345481985 924.6741727966055 354.70521166946025Q926.5662403793484 354.2760829393536 928.399790407986 353.71041324966757L928.399790407986 353.71041324966757L928.6728723271447 353.71041324966757Q929.1020010572513 353.71041324966757 929.1020010572513 354.1395419797742L929.1020010572513 354.1395419797742Q929.1020010572513 354.70521166946025 928.399790407986 354.97829358861907L928.399790407986 354.97829358861907Q924.4596084315522 356.24617392757057 919.9732626168008 356.24617392757057L919.9732626168008 356.24617392757057Q915.4674109506809 356.24617392757057 911.3321704605623 354.62718826398634Q907.1774241190751 353.0082026004021 904.5831458870668 349.5751727595489Q901.9888676550584 346.1226370673272 901.9888676550584 340.5049518732038L901.9888676550584 340.5049518732038Q901.9888676550584 336.1551470180318 903.1787245885359 332.37101185254585Q904.3685815220134 328.56737083569146 906.4752134698098 325.34890535989155L906.4752134698098 325.34890535989155Q911.117606095509 318.32679886723724 919.6221572921681 313.762429647012Q928.1072026374586 309.1980604267867 938.4257980113869 306.8768641139371Q948.7638992366834 304.55566780108745 958.8679302455582 304.55566780108745L958.8679302455582 304.55566780108745Q969.2645490249603 304.55566780108745 978.9589571550969 305.96008909961836Q988.633859433865 307.36451039814915 995.8120127374673 310.60248172531755L995.8120127374673 310.60248172531755Q1006.1891256655008 314.9522865804895 1010.7534948857261 321.8963696676699Q1015.3178641059515 328.85995860621875 1015.3178641059515 336.44773478855905L1015.3178641059515 336.44773478855905Q1015.3178641059515 345.14734449890307 1011.2606470213067 351.95488662650405Q1007.1839240852935 358.76242875410503 1000.434899511798 363.40482137980416Q993.7053807896709 368.0472140055034 985.7664992826979 370.42692787245846Q977.8276177757248 372.80664173941364 970.2398415933844 372.80664173941364L970.2398415933844 372.80664173941364Q966.4557064278986 372.80664173941364 962.808112221992 372.1824544956221Q959.141012164717 371.55826725183056 955.6299589183898 370.56346883203787L955.6299589183898 370.56346883203787Q954.9277482691244 370.29038691287917 954.3035610253329 369.9977991423518Q953.6793737815415 369.7247172231931 952.977163132276 369.4516353040343L952.977163132276 369.4516353040343Q952.8211163213282 369.4516353040343 952.6845753617488 369.3736118985604Q952.5480344021694 369.2955884930865 952.41149344259 369.2955884930865L952.41149344259 369.2955884930865Q949.3100630750009 376.044613066582 946.0135741937271 382.57907327502414Q942.7170853124533 389.1135334834663 938.5038214168608 395.1408415563279L938.5038214168608 395.1408415563279Q934.7196862513748 400.4854448312926 929.9407526660962 405.18635501109736Q925.1618190808176 409.887265190902 919.4075929271148 412.8326487475431L919.4075929271148 412.8326487475431Q916.1696215999464 414.3931168570218 912.7365917590932 415.29038601997206Q909.2840560668715 416.20716103429083 905.6364618609648 416.20716103429083ZM1011.3971879808861 406.2396709849954L1011.3971879808861 406.2396709849954Q1006.0525847059214 406.2396709849954 1002.1904261349616 402.8066411441422Q998.3282675640016 399.35410545192053 998.3282675640016 392.1954579996868L998.3282675640016 392.1954579996868Q998.3282675640016 387.7091121849355 999.9472532275859 382.85215519418296Q1001.5662388911701 378.0147040547988 1003.5363298793869 374.2110630379444L1003.5363298793869 374.2110630379444Q1007.1839240852935 367.34500335623807 1012.723585873943 362.2149644463267Q1018.282753513961 357.0849255364153 1026.0070706558806 357.0849255364153L1026.0070706558806 357.0849255364153Q1033.4388000272731 357.0849255364153 1036.3841835839144 361.1616484724285Q1039.349072991924 365.2383714084417 1039.349072991924 371.1291385217239L1039.349072991924 371.1291385217239Q1039.349072991924 373.508852388679 1038.9199442618174 376.044613066582L1038.9199442618174 376.044613066582Q1037.7886048824453 382.93017859965687 1034.277551636118 389.3866154026251L1034.277551636118 389.3866154026251Q1035.2723500559107 390.79103670115603 1036.891335719495 391.7078117154748Q1038.4908155317107 392.62458672979346 1040.4609065199274 392.62458672979346L1040.4609065199274 392.62458672979346Q1043.835418806675 392.62458672979346 1046.2151326736303 390.79103670115603Q1048.6143523919538 388.9574866725185 1050.3698790151175 386.2266674809307Q1052.1254056382809 383.4958482893429 1053.3932859772324 381.0966285710193L1053.3932859772324 381.0966285710193Q1054.2320375860772 379.5556663129091 1054.9342482353427 379.5556663129091L1054.9342482353427 379.5556663129091Q1055.343871114081 379.5556663129091 1055.343871114081 380.12133600259517L1055.343871114081 380.12133600259517Q1055.343871114081 380.6870056922812 1054.505119505236 382.63759082912964L1054.505119505236 382.63759082912964Q1052.1254056382809 387.4165244144083 1048.8874343111127 390.92757766073544Q1045.6689688353126 394.4386309070626 1040.4609065199274 394.4386309070626L1040.4609065199274 394.4386309070626Q1035.681972934649 394.4386309070626 1033.1657181081146 391.06411862031473L1033.1657181081146 391.06411862031473Q1029.2255361316807 397.5400612746515 1023.6078509375573 401.88986612982353Q1017.9901657434336 406.2396709849954 1011.3971879808861 406.2396709849954ZM1011.6702699000448 404.5621677673058L1011.6702699000448 404.5621677673058Q1018.5558354331199 404.5621677673058 1025.3048600066154 397.81314319381033L1025.3048600066154 397.81314319381033Q1027.2554451434637 395.8430522055934 1028.874430807048 393.67790270369164Q1030.493416470632 391.49324735042137 1031.7612968095837 389.2500744430457L1031.7612968095837 389.2500744430457Q1029.927746780946 387.1434424952495 1029.1670185775752 384.6857052228205Q1028.3867845228358 382.2279679503914 1028.3867845228358 379.98479504301577L1028.3867845228358 379.98479504301577Q1028.3867845228358 376.4737417966886 1029.6546648617873 373.7234167537323Q1030.9225452007386 370.9925975621446 1033.1657181081146 370.9925975621446L1033.1657181081146 370.9925975621446Q1034.277551636118 370.9925975621446 1035.3308676100162 372.1044310901482Q1036.3841835839144 373.2357704695203 1036.6767713544416 375.61548433647533L1036.6767713544416 375.61548433647533Q1037.0863942331798 373.6648991996269 1037.0863942331798 371.40222044088273L1037.0863942331798 371.40222044088273Q1037.0863942331798 366.07712301728657 1035.1358090963313 362.91717509559214Q1033.1657181081146 359.7572271738977 1028.5233254824152 359.7572271738977L1028.5233254824152 359.7572271738977Q1025.7144828853534 359.7572271738977 1022.7690993287124 361.92237667579946Q1019.8237157720712 364.1070320290696 1017.2294375400628 367.1889565452901Q1014.615653456686 370.29038691287917 1012.6650683198376 373.508852388679Q1010.6949773316207 376.7468237158474 1009.700178911828 378.8534556636437L1009.700178911828 378.8534556636437Q1007.3204650448729 384.0420121276604 1006.2671490709747 388.1187350636736Q1005.2138330970765 392.1954579996868 1005.2138330970765 395.27738251590733L1005.2138330970765 395.27738251590733Q1005.2138330970765 399.7832341820272 1007.1059006798196 402.16294804898223Q1008.9979682625626 404.5621677673058 1011.6702699000448 404.5621677673058ZM1080.3503725684777 400.89506771003084L1080.3503725684777 400.89506771003084Q1077.9706587015226 402.8651586982477 1075.6494623886729 403.78193371256646Q1073.3282660758234 404.69870872688523 1071.3581750876065 404.69870872688523L1071.3581750876065 404.69870872688523Q1067.8471218412792 404.69870872688523 1065.5259255284295 402.24097145445626Q1063.2242350669485 399.7832341820272 1063.2242350669485 395.706511246014L1063.2242350669485 395.706511246014Q1063.2242350669485 393.3267973790589 1064.3360685949522 389.9522850923112L1064.3360685949522 389.9522850923112Q1066.1696186235895 384.9002695878738 1069.8172128294962 380.2578769621746Q1073.4648070354028 375.61548433647533 1076.8393193221505 370.8560566025652L1076.8393193221505 370.8560566025652Q1078.9459512699468 368.0472140055034 1078.9459512699468 365.3749123680211L1078.9459512699468 365.3749123680211Q1078.9459512699468 363.9704910694902 1078.1657172152075 362.9756926496975Q1077.4049890118365 362.00040008127337 1075.4348980236196 361.86385912169396L1075.4348980236196 361.86385912169396Q1074.3035586442475 361.57127135116673 1072.8991373457166 361.57127135116673Q1071.4947160471859 361.57127135116673 1070.090294748655 361.57127135116673L1070.090294748655 361.57127135116673L1066.1696186235895 361.57127135116673Q1065.3308670147449 361.57127135116673 1064.6286563654794 361.57127135116673Q1063.926445716214 361.57127135116673 1063.360776026528 361.4347303915873L1063.360776026528 361.4347303915873Q1062.7951063368419 364.9457836379145 1061.0395797136782 369.2955884930865Q1059.2840530905146 373.6648991996269 1057.040880183139 378.0147040547988Q1054.7977072757633 382.3645089099708 1052.6910753279672 385.875562156298L1052.6910753279672 385.875562156298Q1052.1254056382809 386.71431376514283 1051.6962769081742 386.71431376514283L1051.6962769081742 386.71431376514283Q1051.2866540294362 386.71431376514283 1051.2866540294362 385.875562156298L1051.2866540294362 385.875562156298Q1051.2866540294362 384.9002695878738 1051.6962769081742 384.3345998981878L1051.6962769081742 384.3345998981878Q1054.6416604648155 378.58037374448486 1057.3919855077718 373.02120610446696Q1060.1228046993594 367.48154431581736 1061.1176031191521 361.4347303915873L1061.1176031191521 361.4347303915873Q1057.879631791984 359.6206862143183 1056.7482924126118 355.1148345481985L1056.7482924126118 355.1148345481985Q1056.6117514530324 354.412623898933 1056.553233898927 353.7884366551415Q1056.475210493453 353.1447435599815 1056.475210493453 352.598579721664L1056.475210493453 352.598579721664Q1056.475210493453 350.062819043761 1057.5285264673512 348.3072924205975Q1058.5818424412491 346.55176579743386 1059.98626373978 346.55176579743386L1059.98626373978 346.55176579743386Q1061.9563547279972 346.55176579743386 1063.2242350669485 350.3359009629198L1063.2242350669485 350.3359009629198Q1063.4973169861073 351.3306993827125 1063.6338579456867 352.5205563161901Q1063.7703989052661 353.71041324966757 1063.7703989052661 354.84175262903966L1063.7703989052661 354.84175262903966Q1063.7703989052661 356.10963296799116 1063.7118813511606 357.1629489418892Q1063.6338579456867 358.2162649157874 1063.4973169861073 358.91847556505286L1063.4973169861073 358.91847556505286Q1064.4726095545316 359.19155748421167 1066.0915952181156 359.32809844379096Q1067.7105808816998 359.46463940337037 1069.6806718699168 359.46463940337037L1069.6806718699168 359.46463940337037Q1072.626055426558 359.46463940337037 1075.8640267537262 359.2695808896856Q1079.0824922295262 359.05501652463226 1081.3256651369018 359.05501652463226L1081.3256651369018 359.05501652463226Q1083.9979667743842 359.05501652463226 1084.9927651941769 360.1668500526358Q1085.968057762601 361.2981894320079 1085.968057762601 362.9756926496975L1085.968057762601 362.9756926496975Q1085.968057762601 365.0823245974939 1084.914741788703 367.54006186992285Q1083.8614258148048 369.9977991423518 1082.8861332463807 371.69480821140996L1082.8861332463807 371.69480821140996Q1081.0525832177432 375.0693204981577 1079.433597554159 377.6635987301662Q1077.8146118905747 380.2578769621746 1075.8640267537262 383.2032605188157L1075.8640267537262 383.2032605188157Q1072.8991373457166 387.7091121849355 1071.5727394526598 391.41522394494746Q1070.2463415596028 395.1408415563279 1070.2463415596028 397.6766022342309L1070.2463415596028 397.6766022342309Q1070.2463415596028 402.0264070894028 1073.4648070354028 402.0264070894028L1073.4648070354028 402.0264070894028Q1076.137108672885 402.0264070894028 1080.3503725684777 398.242271923917L1080.3503725684777 398.242271923917Q1083.02267420596 395.8430522055934 1085.3438705188096 392.54656332431955Q1087.6455609802906 389.2500744430457 1089.557134414402 385.79753875082406Q1091.449201997145 382.3645089099708 1092.7170823360966 380.12133600259517L1092.7170823360966 380.12133600259517Q1092.9901642552554 379.69220727248853 1093.2632461744142 379.69220727248853L1093.2632461744142 379.69220727248853Q1093.8289158641 379.69220727248853 1093.8289158641 380.8235466518606L1093.8289158641 380.8235466518606Q1093.8289158641 381.66229826070537 1093.419292985362 382.3645089099708L1093.419292985362 382.3645089099708Q1091.0200732670385 386.71431376514283 1087.938148750818 391.9223760805281Q1084.836718383229 397.1109325445449 1080.3503725684777 400.89506771003084ZM1097.4765100700067 404.406120956358L1097.4765100700067 404.406120956358Q1093.9654568236797 404.406120956358 1091.2346376320918 402.37751241403555Q1088.503818440504 400.3489038717132 1088.503818440504 395.706511246014L1088.503818440504 395.706511246014Q1088.503818440504 390.79103670115603 1090.883532307459 384.9002695878738Q1093.2632461744142 378.9899966232231 1095.3698781222106 374.36710984889237L1095.3698781222106 374.36710984889237Q1096.5012175015825 372.1044310901482 1098.3932850843255 368.2422725191883Q1100.2853526670683 364.3801139482284 1102.5480314258125 360.59597878274246L1102.5480314258125 360.59597878274246L1095.9355478118964 360.59597878274246Q1095.5259249331582 360.59597878274246 1095.5259249331582 359.893768133477L1095.5259249331582 359.893768133477Q1095.5259249331582 359.32809844379096 1095.9355478118964 358.70391119999954Q1096.364676542003 358.0602181048396 1096.930346231689 358.0602181048396L1096.930346231689 358.0602181048396Q1100.8510223567546 358.0602181048396 1102.8211133449713 357.3580074555741Q1104.7912043331883 356.6557968063087 1106.1956256317192 355.4074223187257L1106.1956256317192 355.4074223187257Q1108.4387985390947 353.43733133050875 1110.623453892365 350.3359009629198Q1112.7886033942668 347.2539764466993 1114.8952353420632 345.01080353932366L1114.8952353420632 345.01080353932366Q1116.4361976001733 343.0407125511067 1118.757393913023 342.06541998268256Q1121.0785902258726 341.07062156288987 1121.780800875138 341.3632093334171L1121.780800875138 341.3632093334171Q1121.0785902258726 342.33850190184125 1119.5376279677623 344.7182157687964Q1117.996665709652 347.1174354871199 1116.299656640594 349.9262780841816Q1114.6221534229044 352.7351206812434 1113.2177321243735 355.1148345481985Q1111.8133108258426 357.51405426652195 1111.384182095736 358.3528058753668L1111.384182095736 358.3528058753668L1120.649461495766 358.3528058753668Q1121.0785902258726 358.3528058753668 1121.0785902258726 358.6258877945256L1121.0785902258726 358.6258877945256Q1121.0785902258726 359.19155748421167 1120.454402982081 359.893768133477Q1119.8107098869211 360.59597878274246 1119.245040197235 360.59597878274246L1119.245040197235 360.59597878274246L1110.1163017567844 360.59597878274246Q1107.60004693025 364.9457836379145 1104.1475112380285 371.9093725764633Q1100.7144813971752 378.8534556636437 1098.0421797596928 385.3098924666119L1098.0421797596928 385.3098924666119Q1097.4765100700067 386.5777728055634 1096.1501121769497 390.3619079710494Q1094.823714283893 394.1655489879038 1094.823714283893 397.3840144637037L1094.823714283893 397.3840144637037Q1094.823714283893 399.49064641149994 1095.720983446843 400.89506771003084Q1096.6377584611619 402.29948900856164 1098.8809313685376 402.29948900856164L1098.8809313685376 402.29948900856164Q1101.2801510868612 402.29948900856164 1104.0889936839228 400.5439623853981Q1106.8978362809846 398.7884357622345 1108.4387985390947 396.9743915849655L1108.4387985390947 396.9743915849655Q1111.6767698662632 393.4633383386383 1114.3295656523771 389.2500744430457Q1117.0018672898595 385.0368105474531 1119.6741689273417 380.2578769621746L1119.6741689273417 380.2578769621746Q1120.1032976574484 379.69220727248853 1120.5129205361866 379.69220727248853L1120.5129205361866 379.69220727248853Q1121.0785902258726 379.69220727248853 1121.0785902258726 380.5309588813333L1121.0785902258726 380.5309588813333Q1121.0785902258726 381.23316953059873 1120.8055083067138 381.66229826070537L1120.8055083067138 381.66229826070537Q1118.2697476288108 386.3046908864046 1115.3828816262753 390.92757766073544Q1112.515521475108 395.56997028643457 1108.4387985390947 399.64669322244777L1108.4387985390947 399.64669322244777Q1106.6052485104574 401.4607373997169 1103.5233239942368 402.9431821037216Q1100.4413994780164 404.406120956358 1097.4765100700067 404.406120956358ZM1113.081191164794 451.6102812680897L1113.081191164794 451.6102812680897Q1107.8731288494087 451.6102812680897 1105.903037861192 447.5920758861819Q1103.9524527243434 443.5933763556427 1103.9524527243434 438.1122321210986L1103.9524527243434 438.1122321210986Q1103.9524527243434 431.9483830886576 1105.2788506174002 424.71171223094996Q1106.6052485104574 417.47504137324233 1108.4387985390947 411.0186045702741L1108.4387985390947 411.0186045702741Q1110.4088895273117 404.406120956358 1112.8666267997407 397.1109325445449Q1115.3243640721698 389.81574413273177 1118.4062885883902 382.63759082912964L1118.4062885883902 382.63759082912964Q1121.3516721450314 375.61548433647533 1125.9160413652567 366.07712301728657Q1130.4804105854819 356.51925584672927 1136.1761191850792 346.33720143238054Q1141.8718277846767 336.1551470180318 1148.3867821417502 326.9678910234758Q1154.9212423501926 317.7611291775512 1162.0213722483209 311.0121046040557Q1169.1019962950807 304.28258588192864 1176.4166905582622 302.039412974553L1176.4166905582622 302.039412974553Q1177.255442167107 301.88336616360516 1178.1722171814258 301.74682520402575Q1179.0889921957446 301.61028424444635 1179.9277438045892 301.61028424444635L1179.9277438045892 301.61028424444635Q1182.0343757523856 301.61028424444635 1183.575338010496 302.58557681287056L1183.575338010496 302.58557681287056Q1185.5454289987129 303.853457151822 1185.5454289987129 307.0914284789904L1185.5454289987129 307.0914284789904Q1185.5454289987129 309.3346013863661 1184.2775486597614 312.57257271353444L1184.2775486597614 312.57257271353444Q1182.0343757523856 318.1902579076579 1176.904336842474 324.64669471062615Q1171.774297932563 331.10313151359446 1164.8887323994882 337.85215608708995L1164.8887323994882 337.85215608708995Q1156.4622046083027 345.9860961077478 1148.7378874663832 352.2474743970313Q1141.0135703244634 358.4893468349462 1136.0980957796055 362.00040008127337L1136.0980957796055 362.00040008127337Q1132.0408786949606 370.29038691287917 1128.666366408213 377.5270577705868Q1125.2918541214651 384.7442227769259 1123.185222173669 389.81574413273177Q1121.0785902258726 394.86775963716923 1120.3763795766072 396.68180381443824L1120.3763795766072 396.68180381443824Q1118.8354173184969 401.4607373997169 1116.6507619652266 407.3710103643675Q1114.485612463325 413.26177747764973 1112.6520624346874 419.15254459093194L1112.6520624346874 419.15254459093194Q1112.0863927450014 420.9860946195695 1111.2476411361567 424.36060690631723Q1110.4088895273117 427.7351191930651 1109.7651964321517 431.59727776402485Q1109.1410091883602 435.45943633498473 1109.1410091883602 439.1070305408913L1109.1410091883602 439.1070305408913Q1109.1410091883602 443.02770666595666 1110.4088895273117 445.9925960739662Q1111.6767698662632 448.9379796306073 1114.7586943824836 448.9379796306073L1114.7586943824836 448.9379796306073Q1116.299656640594 448.9379796306073 1117.918642304178 447.8066402512352Q1119.5376279677623 446.69480672323164 1121.6442599155587 444.02250508574934L1121.6442599155587 444.02250508574934Q1125.2918541214651 439.5166534196295 1127.8276147993681 432.78713469750244Q1130.3438696259025 426.03811012400695 1131.611749964854 419.718214280618L1131.611749964854 419.718214280618Q1131.8848318840128 418.1772520225078 1132.2359372086457 415.7195147500788Q1132.5870425332782 413.26177747764973 1132.5870425332782 410.58947584016744L1132.5870425332782 410.58947584016744Q1132.5870425332782 408.6193848519505 1132.2359372086457 406.66879971510207Q1131.8848318840128 404.69870872688523 1131.0460802751682 403.43082838793373L1131.0460802751682 403.43082838793373Q1129.9342467471643 402.16294804898223 1128.2372376781063 402.16294804898223L1128.2372376781063 402.16294804898223Q1126.696275419996 402.16294804898223 1125.564936040624 403.0016996578271L1125.564936040624 403.0016996578271Q1123.8874328229344 404.406120956358 1124.1605147420933 406.2396709849954L1124.1605147420933 406.2396709849954Q1121.3516721450314 404.2695799967786 1121.3516721450314 401.5972783592962L1121.3516721450314 401.5972783592962Q1121.3516721450314 399.08102353276183 1123.3997865387223 397.1889559500188Q1125.4283950810445 395.27738251590733 1128.1006967185267 395.27738251590733L1128.1006967185267 395.27738251590733Q1131.1826212347473 395.27738251590733 1133.1527122229643 397.1109325445449Q1135.1228032111812 398.9444825731824 1135.8250138604467 401.4607373997169L1135.8250138604467 401.4607373997169L1135.8250138604467 401.5972783592962Q1142.1449097038355 399.2175644923411 1146.5727379644813 393.3853149331644Q1151.0005662251274 387.5530653739876 1154.2190317009272 381.38921634154667L1154.2190317009272 381.38921634154667Q1154.6481604310338 380.394417921754 1155.057783309772 380.394417921754L1155.057783309772 380.394417921754Q1155.4869120398785 380.394417921754 1155.4869120398785 381.52575730112596L1155.4869120398785 381.52575730112596Q1155.4869120398785 382.63759082912964 1155.057783309772 383.4958482893429L1155.057783309772 383.4958482893429Q1151.839317833972 389.52315636220453 1147.4114895733262 395.0043005967485Q1142.9836613126804 400.4854448312926 1136.3906835501325 403.43082838793373L1136.3906835501325 403.43082838793373Q1136.6637654692913 404.406120956358 1136.6637654692913 405.615483741204Q1136.6637654692913 406.8053406746815 1136.6637654692913 408.073221013633L1136.6637654692913 408.073221013633Q1136.6637654692913 410.8820636106947 1136.3126601446588 414.1785524919685Q1135.9615548200259 417.47504137324233 1135.1228032111812 420.9860946195695L1135.1228032111812 420.9860946195695Q1133.4452999934915 427.8716601526444 1130.3438696259025 434.67920228024536Q1127.261945109682 441.48674440784634 1123.185222173669 445.9925960739662L1123.185222173669 445.9925960739662Q1120.942049266293 448.23576898134183 1118.4062885883902 449.91327219903155Q1115.8900337618556 451.6102812680897 1113.081191164794 451.6102812680897ZM1137.658563889084 359.19155748421167L1137.658563889084 359.19155748421167Q1145.9290448693214 353.0082026004021 1152.4635050777636 346.82484771659267Q1158.9979652862057 340.66099868415165 1165.8835308192806 333.4828453805495L1165.8835308192806 333.4828453805495Q1167.8536218074976 331.37621343275316 1171.013569729192 327.865160186426Q1174.1735176508864 324.35410694009886 1177.255442167107 320.2968898554542Q1180.3373666833274 316.220166919441 1181.8978347928062 312.4165259025866L1181.8978347928062 312.4165259025866Q1183.302256091337 309.1980604267867 1183.302256091337 306.95488751941105L1183.302256091337 306.95488751941105Q1183.302256091337 303.1512465025566 1179.79120284501 303.1512465025566L1179.79120284501 303.1512465025566Q1177.9576528163725 303.1512465025566 1175.7144799089965 304.28258588192864Q1173.471307001621 305.3944194099323 1171.5012160134042 307.36451039814915L1171.5012160134042 307.36451039814915Q1166.0200717788603 312.57257271353444 1160.1293046655778 320.99910050471965Q1154.2190317009272 329.42562829590474 1148.4648055472244 339.39311834520015Q1142.7105793935216 349.36060839449556 1137.658563889084 359.19155748421167ZM1165.454402089174 406.2396709849954L1165.454402089174 406.2396709849954Q1160.1293046655778 406.2396709849954 1156.267146094618 402.8066411441422Q1152.4049875236583 399.35410545192053 1152.4049875236583 392.1954579996868L1152.4049875236583 392.1954579996868Q1152.4049875236583 387.7091121849355 1154.0044673358739 382.85215519418296Q1155.623452999458 378.0147040547988 1157.5935439876748 374.2110630379444L1157.5935439876748 374.2110630379444Q1161.2411381935815 367.34500335623807 1166.8003058335994 362.2149644463267Q1172.3399676222489 357.0849255364153 1180.0642847641689 357.0849255364153L1180.0642847641689 357.0849255364153Q1187.5155199869296 357.0849255364153 1190.4609035435706 361.1616484724285Q1193.406287100212 365.2383714084417 1193.406287100212 371.1291385217239L1193.406287100212 371.1291385217239Q1193.406287100212 373.508852388679 1192.9771583701051 376.044613066582L1192.9771583701051 376.044613066582Q1191.8653248421017 382.93017859965687 1188.3542715957744 389.3866154026251L1188.3542715957744 389.3866154026251Q1189.3295641641987 390.79103670115603 1190.9485498277827 391.7078117154748Q1192.567535491367 392.62458672979346 1194.537626479584 392.62458672979346L1194.537626479584 392.62458672979346Q1197.892632914963 392.62458672979346 1200.291852633287 390.79103670115603Q1202.671566500242 388.9574866725185 1204.4270931234055 386.2266674809307Q1206.182619746569 383.4958482893429 1207.4505000855206 381.0966285710193L1207.4505000855206 381.0966285710193Q1208.2892516943652 379.5556663129091 1208.9914623436307 379.5556663129091L1208.9914623436307 379.5556663129091Q1209.4205910737373 379.5556663129091 1209.4205910737373 380.12133600259517L1209.4205910737373 380.12133600259517Q1209.4205910737373 380.6870056922812 1208.5818394648927 382.63759082912964L1208.5818394648927 382.63759082912964Q1206.182619746569 387.4165244144083 1202.964154270769 390.92757766073544Q1199.7261829436006 394.4386309070626 1194.537626479584 394.4386309070626L1194.537626479584 394.4386309070626Q1189.7586928943053 394.4386309070626 1187.2229322164026 391.06411862031473L1187.2229322164026 391.06411862031473Q1183.302256091337 397.5400612746515 1177.6845708972137 401.88986612982353Q1172.06688570309 406.2396709849954 1165.454402089174 406.2396709849954ZM1165.7469898597014 404.5621677673058L1165.7469898597014 404.5621677673058Q1172.6130495414077 404.5621677673058 1179.3620741149032 397.81314319381033L1179.3620741149032 397.81314319381033Q1181.3321651031201 395.8430522055934 1182.9511507667044 393.67790270369164Q1184.55063057892 391.49324735042137 1185.8185109178717 389.2500744430457L1185.8185109178717 389.2500744430457Q1184.0044667406023 387.1434424952495 1183.2242326858632 384.6857052228205Q1182.4439986311238 382.2279679503914 1182.4439986311238 379.98479504301577L1182.4439986311238 379.98479504301577Q1182.4439986311238 376.4737417966886 1183.7118789700753 373.7234167537323Q1184.9797593090266 370.9925975621446 1187.2229322164026 370.9925975621446L1187.2229322164026 370.9925975621446Q1188.3542715957744 370.9925975621446 1189.4075875696726 372.1044310901482Q1190.4609035435706 373.2357704695203 1190.7339854627296 375.61548433647533L1190.7339854627296 375.61548433647533Q1191.163114192836 373.6648991996269 1191.163114192836 371.40222044088273L1191.163114192836 371.40222044088273Q1191.163114192836 366.07712301728657 1189.1930232046193 362.91717509559214Q1187.2229322164026 359.7572271738977 1182.6000454420716 359.7572271738977L1182.6000454420716 359.7572271738977Q1179.79120284501 359.7572271738977 1176.8263134370004 361.92237667579946Q1173.8809298803592 364.1070320290696 1171.286651648351 367.1889565452901Q1168.6923734163424 370.29038691287917 1166.7222824281257 373.508852388679Q1164.7521914399085 376.7468237158474 1163.7768988714843 378.8534556636437L1163.7768988714843 378.8534556636437Q1161.377679153161 384.0420121276604 1160.3243631792627 388.1187350636736Q1159.2710472053645 392.1954579996868 1159.2710472053645 395.27738251590733L1159.2710472053645 395.27738251590733Q1159.2710472053645 399.7832341820272 1161.182620639476 402.16294804898223Q1163.074688222219 404.5621677673058 1165.7469898597014 404.5621677673058ZM1214.3360656185955 404.2695799967786L1214.3360656185955 404.2695799967786Q1209.284050114158 404.2695799967786 1207.313959125941 401.3241964401375Q1205.3438681377243 398.3788128834964 1205.3438681377243 393.87296121737654L1205.3438681377243 393.87296121737654Q1205.3438681377243 389.2500744430457 1206.826312841729 383.76893020850173Q1208.2892516943652 378.2877859739576 1210.3373660880561 373.09922950994087Q1212.3659746303783 367.8911671945556 1214.2580422131214 363.9704910694902Q1216.1501097958644 360.0303090930564 1216.8523204451299 358.4893468349462L1216.8523204451299 358.4893468349462Q1219.3880811230329 353.1447435599815 1223.1136987344132 346.41522483785445Q1226.8393163457936 339.66620026435896 1231.5402265255984 332.64409377170466Q1236.2411367054033 325.62198727905036 1241.507716574894 319.3020914356615Q1246.7742964443846 312.98219559227266 1252.470005043982 308.35930881794184Q1258.146207792211 303.71691619224265 1263.7638929863342 302.039412974553L1263.7638929863342 302.039412974553Q1265.3048552444445 301.61028424444635 1266.572735583396 301.61028424444635L1266.572735583396 301.61028424444635Q1268.9719553017194 301.61028424444635 1270.5714351139352 302.9366821375032Q1272.1904207775196 304.28258588192864 1272.1904207775196 307.50105135772856L1272.1904207775196 307.50105135772856Q1272.1904207775196 309.76373011647274 1271.0785872495157 313.118736551852L1271.0785872495157 313.118736551852Q1269.2450372208782 318.03421109671 1264.8952323657063 324.0030016154662Q1260.5454275105344 329.97179213422237 1254.6351545458838 336.36971138308513Q1248.7443874326013 342.767630631948 1242.2099272241594 348.9314796643889Q1235.675467015717 355.1148345481985 1229.4921121319076 360.45943782316306Q1223.3282630994668 365.78453524675933 1218.549329514188 369.5881762636137L1218.549329514188 369.5881762636137Q1217.2814491752365 372.260477901096 1216.2281332013386 374.7767327276305Q1215.1748172274401 377.3124934055335 1214.3360656185955 379.69220727248853L1214.3360656185955 379.69220727248853Q1213.9069368884889 380.96008761144003 1213.0681852796438 383.4958482893429Q1212.2294336707992 386.0121031158774 1211.5272230215337 389.1135334834663Q1210.8250123722682 392.1954579996868 1210.8250123722682 395.0043005967485L1210.8250123722682 395.0043005967485Q1210.8250123722682 397.81314319381033 1211.936845900272 399.84175173613266Q1213.0681852796438 401.88986612982353 1216.013568836285 401.88986612982353L1216.013568836285 401.88986612982353Q1218.4127885546086 401.88986612982353 1220.4413970969308 400.3489038717132Q1222.4700056392535 398.7884357622345 1224.1670147083114 396.9743915849655L1224.1670147083114 396.9743915849655Q1230.0577818215936 390.22536701147 1234.7001744472927 381.38921634154667L1234.7001744472927 381.38921634154667Q1235.265844136979 380.394417921754 1235.5389260561378 380.394417921754L1235.5389260561378 380.394417921754Q1235.8120079752964 380.394417921754 1235.8120079752964 381.23316953059873L1235.8120079752964 381.23316953059873Q1235.8120079752964 382.50104986955023 1235.265844136979 383.90547116808114L1235.265844136979 383.90547116808114Q1232.5935424994966 388.8209457129391 1230.4088871462263 392.1954579996868Q1228.2437376443245 395.56997028643457 1224.1670147083114 399.64669322244777L1224.1670147083114 399.64669322244777Q1222.3334646796739 401.4607373997169 1219.875727407245 402.8651586982477Q1217.4179901348157 404.2695799967786 1214.3360656185955 404.2695799967786ZM1220.0902917722983 366.35020493644527L1220.0902917722983 366.35020493644527Q1224.4400966274702 362.5660697709594 1230.194322781173 357.29948990146863Q1235.9680547862445 352.03291003197796 1241.995362859106 345.9860961077478Q1248.0421767833361 339.9587880348862 1253.4452976124062 333.91197411065616Q1258.848418441476 327.865160186426 1262.8471179720154 322.54006276282985Q1266.8653233539233 317.1954594878652 1268.2697446524542 313.2747833627999L1268.2697446524542 313.2747833627999Q1269.518119140037 309.60768330552486 1269.518119140037 307.65709816867644L1269.518119140037 307.65709816867644Q1269.518119140037 303.9899981114014 1266.2996536642372 303.9899981114014L1266.2996536642372 303.9899981114014Q1264.4661036355997 303.9899981114014 1261.9498488090653 305.3359018558268Q1259.4140881311623 306.66229974888375 1257.307456183366 308.76893169668006L1257.307456183366 308.76893169668006Q1253.7964029370387 312.1434439834278 1249.0954927572343 318.38531642134274Q1244.3945825774294 324.64669471062615 1239.1865202620443 332.64409377170466Q1233.9979637980273 340.66099868415165 1229.0044658476954 349.36060839449556Q1224.030473748732 358.0602181048396 1220.0902917722983 366.35020493644527ZM1238.4843096127788 404.2695799967786L1238.4843096127788 404.2695799967786Q1234.5636334877136 404.2695799967786 1232.730083459076 401.6753017647702Q1230.8965334304385 399.08102353276183 1230.8965334304385 395.27738251590733L1230.8965334304385 395.27738251590733Q1230.8965334304385 394.1655489879038 1231.1110977954918 392.9756920544262Q1231.325662160545 391.7663292695802 1231.598744079704 390.5179547819972L1231.598744079704 390.5179547819972Q1233.1592121891827 384.9002695878738 1236.4557010704566 377.9366806493249Q1239.7521899517303 370.9925975621446 1242.8341144679507 365.5114533276005L1242.8341144679507 365.5114533276005Q1244.6676644965883 362.42952881138 1246.2086267546986 361.0836250669546Q1247.7495890128087 359.7572271738977 1249.5831390414462 359.11353407873764Q1251.4166890700837 358.4893468349462 1253.9329438966183 357.65059522610136L1253.9329438966183 357.65059522610136Q1254.6351545458838 357.3580074555741 1255.3373651951492 357.2214664959947Q1256.0395758444145 357.0849255364153 1256.8783274532593 356.9483845768359L1256.8783274532593 356.9483845768359Q1254.0694848561975 359.7572271738977 1251.2021247050307 363.677903298963Q1248.3152587024947 367.61808527539677 1244.940746415747 374.50365080847166L1244.940746415747 374.50365080847166Q1243.126702238478 378.1512450143782 1241.3711756153143 382.63759082912964Q1239.615648992151 387.1434424952495 1238.3477686531994 391.06411862031473Q1237.079888314248 395.0043005967485 1236.9433473546687 397.2474735041243L1236.9433473546687 397.2474735041243Q1236.806806395089 399.9197751416066 1237.645558003934 401.0511145209787Q1238.4843096127788 402.16294804898223 1239.8887309113097 402.16294804898223L1239.8887309113097 402.16294804898223Q1242.287950629633 402.16294804898223 1244.453100131535 400.4854448312926Q1246.6377554848052 398.7884357622345 1248.3152587024947 396.9743915849655L1248.3152587024947 396.9743915849655Q1251.4166890700837 393.4633383386383 1254.1475082616716 389.2500744430457Q1256.8783274532593 385.0368105474531 1259.5506290907417 380.2578769621746L1259.5506290907417 380.2578769621746Q1259.9797578208484 379.69220727248853 1260.2528397400072 379.69220727248853L1260.2528397400072 379.69220727248853Q1260.8185094296932 379.69220727248853 1260.8185094296932 380.5309588813333L1260.8185094296932 380.5309588813333Q1260.8185094296932 381.23316953059873 1260.5454275105344 381.66229826070537L1260.5454275105344 381.66229826070537Q1258.0096668326314 386.3046908864046 1255.2008242355696 390.92757766073544Q1252.391981638508 395.56997028643457 1248.3152587024947 399.64669322244777L1248.3152587024947 399.64669322244777Q1246.5012145252258 401.4607373997169 1244.043477252797 402.8651586982477Q1241.5857399803679 404.2695799967786 1238.4843096127788 404.2695799967786ZM1255.649458817045 349.00950306986294L1255.649458817045 349.00950306986294Q1254.0304731534607 349.00950306986294 1252.996663030931 347.8976695418593Q1251.9628529084014 346.80534186522414 1251.9628529084014 345.32289716121943L1251.9628529084014 345.32289716121943Q1251.9628529084014 343.25527691616 1253.601344423354 341.71431465804983Q1255.2203300869382 340.1538465485711 1257.1319035210495 340.0173055889917L1257.1319035210495 340.0173055889917Q1258.750889184634 340.0173055889917 1259.7846993071635 341.05111571152133Q1260.8185094296932 342.084925834051 1260.8185094296932 343.7039114976352L1260.8185094296932 343.7039114976352Q1260.8185094296932 345.61548493174666 1259.277547171583 347.3124940008048Q1257.7170790621042 349.00950306986294 1255.649458817045 349.00950306986294ZM1270.0837888297233 406.2396709849954L1270.0837888297233 406.2396709849954Q1264.7586914061271 406.2396709849954 1260.896532835167 402.8066411441422Q1257.0343742642071 399.35410545192053 1257.0343742642071 392.1954579996868L1257.0343742642071 392.1954579996868Q1257.0343742642071 387.7091121849355 1258.633854076423 382.85215519418296Q1260.2528397400072 378.0147040547988 1262.2229307282241 374.2110630379444L1262.2229307282241 374.2110630379444Q1265.8705249341306 367.34500335623807 1271.4296925741487 362.2149644463267Q1276.9693543627982 357.0849255364153 1284.6936715047177 357.0849255364153L1284.6936715047177 357.0849255364153Q1292.1449067274787 357.0849255364153 1295.0902902841199 361.1616484724285Q1298.0356738407609 365.2383714084417 1298.0356738407609 371.1291385217239L1298.0356738407609 371.1291385217239Q1298.0356738407609 373.508852388679 1297.6065451106542 376.044613066582L1297.6065451106542 376.044613066582Q1296.4947115826508 382.93017859965687 1292.9836583363235 389.3866154026251L1292.9836583363235 389.3866154026251Q1293.9589509047478 390.79103670115603 1295.577936568332 391.7078117154748Q1297.1969222319162 392.62458672979346 1299.167013220133 392.62458672979346L1299.167013220133 392.62458672979346Q1302.5220196555124 392.62458672979346 1304.9212393738358 390.79103670115603Q1307.300953240791 388.9574866725185 1309.0564798639546 386.2266674809307Q1310.8120064871182 383.4958482893429 1312.0798868260695 381.0966285710193L1312.0798868260695 381.0966285710193Q1312.9186384349146 379.5556663129091 1313.62084908418 379.5556663129091L1313.62084908418 379.5556663129091Q1314.0499778142864 379.5556663129091 1314.0499778142864 380.12133600259517L1314.0499778142864 380.12133600259517Q1314.0499778142864 380.6870056922812 1313.2112262054416 382.63759082912964L1313.2112262054416 382.63759082912964Q1310.8120064871182 387.4165244144083 1307.5935410113182 390.92757766073544Q1304.35556968415 394.4386309070626 1299.167013220133 394.4386309070626L1299.167013220133 394.4386309070626Q1294.3880796348544 394.4386309070626 1291.8523189569514 391.06411862031473L1291.8523189569514 391.06411862031473Q1287.9316428318862 397.5400612746515 1282.3139576377628 401.88986612982353Q1276.6962724436394 406.2396709849954 1270.0837888297233 406.2396709849954ZM1270.3763766002503 404.5621677673058L1270.3763766002503 404.5621677673058Q1277.242436281957 404.5621677673058 1283.9914608554523 397.81314319381033L1283.9914608554523 397.81314319381033Q1285.9615518436694 395.8430522055934 1287.5805375072534 393.67790270369164Q1289.1800173194692 391.49324735042137 1290.4478976584205 389.2500744430457L1290.4478976584205 389.2500744430457Q1288.6338534811516 387.1434424952495 1287.853619426412 384.6857052228205Q1287.0733853716729 382.2279679503914 1287.0733853716729 379.98479504301577L1287.0733853716729 379.98479504301577Q1287.0733853716729 376.4737417966886 1288.3412657106242 373.7234167537323Q1289.6091460495759 370.9925975621446 1291.8523189569514 370.9925975621446L1291.8523189569514 370.9925975621446Q1292.9836583363235 370.9925975621446 1294.0369743102217 372.1044310901482Q1295.0902902841199 373.2357704695203 1295.3633722032787 375.61548433647533L1295.3633722032787 375.61548433647533Q1295.7925009333853 373.6648991996269 1295.7925009333853 371.40222044088273L1295.7925009333853 371.40222044088273Q1295.7925009333853 366.07712301728657 1293.8224099451684 362.91717509559214Q1291.8523189569514 359.7572271738977 1287.2294321826207 359.7572271738977L1287.2294321826207 359.7572271738977Q1284.420589585559 359.7572271738977 1281.4557001775495 361.92237667579946Q1278.5103166209083 364.1070320290696 1275.9160383888998 367.1889565452901Q1273.3217601568915 370.29038691287917 1271.3516691686746 373.508852388679Q1269.3815781804578 376.7468237158474 1268.4062856120336 378.8534556636437L1268.4062856120336 378.8534556636437Q1266.00706589371 384.0420121276604 1264.9537499198118 388.1187350636736Q1263.9004339459138 392.1954579996868 1263.9004339459138 395.27738251590733L1263.9004339459138 395.27738251590733Q1263.9004339459138 399.7832341820272 1265.812007380025 402.16294804898223Q1267.7040749627681 404.5621677673058 1270.3763766002503 404.5621677673058Z " fill="#000000" transform="matrix(0.6658803005305284,0,0,0.6658803005305284,0,49.22260937445179)"/></g></svg>